<?xml version="1.0" encoding="UTF-8" standalone="no"?>
<svg
   viewBox="0 0 1796.5336 1794.6361"
   version="1.1"
   id="svg1"
   sodipodi:docname="db-pool2.svg"
   width="1796.5336"
   height="1794.6361"
   inkscape:version="1.3.2 (091e20ef0f, 2023-11-25, custom)"
   xmlns:inkscape="http://www.inkscape.org/namespaces/inkscape"
   xmlns:sodipodi="http://sodipodi.sourceforge.net/DTD/sodipodi-0.dtd"
   xmlns="http://www.w3.org/2000/svg"
   xmlns:svg="http://www.w3.org/2000/svg">
  <defs
     id="defs1" />
  <sodipodi:namedview
     id="namedview1"
     pagecolor="#ffffff"
     bordercolor="#666666"
     borderopacity="1.0"
     inkscape:showpageshadow="2"
     inkscape:pageopacity="0.0"
     inkscape:pagecheckerboard="0"
     inkscape:deskcolor="#d1d1d1"
     showguides="true"
     inkscape:zoom="0.36938169"
     inkscape:cx="870.3734"
     inkscape:cy="990.84499"
     inkscape:window-width="1920"
     inkscape:window-height="1008"
     inkscape:window-x="0"
     inkscape:window-y="0"
     inkscape:window-maximized="1"
     inkscape:current-layer="svg1" />
  <!--!Font Awesome Free 6.5.1 by @fontawesome - https://fontawesome.com License - https://fontawesome.com/license/free Copyright 2024 Fonticons, Inc.-->
  <path
     sodipodi:type="star"
     style="opacity:0.983217;fill:#a6cee3;fill-opacity:0.24705882;stroke:#8a9dff;stroke-opacity:1;stroke-width:4.98213456;stroke-dasharray:none"
     id="path2"
     inkscape:flatsided="true"
     sodipodi:sides="5"
     sodipodi:cx="898.26678"
     sodipodi:cy="946.07129"
     sodipodi:r1="706.07129"
     sodipodi:r2="353.03564"
     sodipodi:arg1="-1.5709702"
     sodipodi:arg2="-0.94265167"
     inkscape:rounded="0.2"
     inkscape:randomized="0"
     d="m 898.14402,240.00001 c 166.00728,-0.0289 620.27198,329.89308 671.59848,487.7665 51.3266,157.87341 -122.0723,691.85629 -256.3581,789.45629 -134.2858,97.6 -695.71688,97.6976 -830.03658,0.1443 C 349.02812,1419.8138 175.44353,885.89128 226.71516,728.00002 277.98679,570.10877 732.1367,240.02887 898.14402,240.00001 Z"
     inkscape:transform-center-x="0.038066612"
     inkscape:transform-center-y="-67.629368"
     transform="matrix(1.0035859,0,0,1.0035859,-3.2206537,-0.86062505)" />
  <path
     d="m 448.30748,569.74993 v 48 c 0,44.2 -100.3,80 -224,80 -123.7,0 -223.99998848,-35.8 -223.99998848,-80 v -48 c 0,-44.2 100.29998848,-80 223.99998848,-80 123.7,0 224,35.8 224,80 z m -54.8,134.7 c 20.8,-7.4 39.9,-16.9 54.8,-28.6 v 101.9 c 0,44.2 -100.3,80 -224,80 -123.7,0 -223.99998848,-35.8 -223.99998848,-80 v -101.9 c 14.90001048,11.8 33.99999048,21.2 54.79999048,28.6 44.899998,16 104.699998,25.3 169.199998,25.3 64.5,0 124.3,-9.3 169.2,-25.3 z m -393.19998848,131.4 c 14.90000048,11.8 33.99999048,21.2 54.79999048,28.6 44.899998,16 104.699998,25.3 169.199998,25.3 64.5,0 124.3,-9.3 169.2,-25.3 20.8,-7.4 39.9,-16.9 54.8,-28.6 v 85.9 c 0,44.2 -100.3,79.99997 -224,79.99997 -123.7,0 -223.99998848,-35.79997 -223.99998848,-79.99997 z"
     id="path1-6"
     style="fill:#8da0cb;fill-opacity:1" />
  <path
     d="M 1122.144,80.000002 V 128 c 0,44.2 -100.3,80 -223.99998,80 -123.7,0 -224.00005,-35.8 -224.00005,-80 V 80.000002 C 674.14397,35.800002 774.44402,1.6612074e-6 898.14402,1.6612074e-6 1021.844,1.6612074e-6 1122.144,35.800002 1122.144,80.000002 Z M 1067.344,214.7 c 20.8,-7.4 39.9,-16.9 54.8,-28.6 V 288 c 0,44.2 -100.3,80 -223.99998,80 -123.7,0 -224.00005,-35.8 -224.00005,-80 V 186.1 c 14.9,11.8 34.00001,21.2 54.80001,28.6 44.90004,16 104.70004,25.3 169.20004,25.3 64.4999,0 124.29998,-9.3 169.19998,-25.3 z M 674.14397,346.1 c 14.9,11.8 34.00001,21.2 54.80001,28.6 44.90004,16 104.70004,25.3 169.20004,25.3 64.4999,0 124.29998,-9.3 169.19998,-25.3 20.8,-7.4 39.9,-16.9 54.8,-28.6 V 432 c 0,44.2 -100.3,80 -223.99998,80 -123.7,0 -224.00005,-35.8 -224.00005,-80 z"
     id="path1-6-6-9"
     style="fill:#a6d854;fill-opacity:1" />
  <path
     d="m 1796.1508,569.51558 v 48 c 0,44.2 -100.3,80 -224,80 -123.7,0 -224,-35.8 -224,-80 v -48 c 0,-44.2 100.3,-80 224,-80 123.7,0 224,35.8 224,80 z m -54.8,134.7 c 20.8,-7.4 39.9,-16.9 54.8,-28.6 v 101.9 c 0,44.2 -100.3,80 -224,80 -123.7,0 -224,-35.8 -224,-80 v -101.9 c 14.9,11.8 34,21.2 54.8,28.6 44.9,16 104.7,25.3 169.2,25.3 64.5,0 124.3,-9.3 169.2,-25.3 z m -393.2,131.4 c 14.9,11.8 34,21.2 54.8,28.6 44.9,16 104.7,25.3 169.2,25.3 64.5,0 124.3,-9.3 169.2,-25.3 20.8,-7.4 39.9,-16.9 54.8,-28.6 v 85.9 c 0,44.2 -100.3,80.00002 -224,80.00002 -123.7,0 -224,-35.80002 -224,-80.00002 z"
     id="path1-6-6-3"
     style="fill:#66c2a5;fill-opacity:1" />
  <path
     d="m 705.8604,1361.9476 v 48 c 0,44.2 -100.3,80 -224,80 -123.7,0 -224,-35.8 -224,-80 v -48 c 0,-44.2 100.3,-80 224,-80 123.7,0 224,35.8 224,80 z m -54.8,134.7 c 20.8,-7.4 39.9,-16.9 54.8,-28.6 v 101.9 c 0,44.2 -100.3,80 -224,80 -123.7,0 -224,-35.8 -224,-80 v -101.9 c 14.9,11.8 34,21.2 54.8,28.6 44.9,16 104.7,25.3 169.2,25.3 64.5,0 124.3,-9.3 169.2,-25.3 z m -393.2,131.4 c 14.9,11.8 34,21.2 54.8,28.6 44.9,16 104.7,25.3 169.2,25.3 64.5,0 124.3,-9.3 169.2,-25.3 20.8,-7.4 39.9,-16.9 54.8,-28.6 v 85.9 c 0,44.2 -100.3,80 -224,80 -123.7,0 -224,-35.8 -224,-80 z"
     id="path1-6-6-29"
     style="fill:#e78ac3;fill-opacity:1" />
  <path
     d="m 1538.8734,1361.8028 v 48 c 0,44.2 -100.3,80 -224,80 -123.7,0 -224,-35.8 -224,-80 v -48 c 0,-44.2 100.3,-80 224,-80 123.7,0 224,35.8 224,80 z m -54.8,134.7 c 20.8,-7.4 39.9,-16.9 54.8,-28.6 v 101.9 c 0,44.2 -100.3,80 -224,80 -123.7,0 -224,-35.8 -224,-80 v -101.9 c 14.9,11.8 34,21.2 54.8,28.6 44.9,16 104.7,25.3 169.2,25.3 64.5,0 124.3,-9.3 169.2,-25.3 z m -393.2,131.4 c 14.9,11.8 34,21.2 54.8,28.6 44.9,16 104.7,25.3 169.2,25.3 64.5,0 124.3,-9.3 169.2,-25.3 20.8,-7.4 39.9,-16.9 54.8,-28.6 v 85.9 c 0,44.2 -100.3,80 -224,80 -123.7,0 -224,-35.8 -224,-80 z"
     id="path1-6-6-2"
     style="fill:#fc8d62;fill-opacity:1" />
</svg>
